#!OML:ASF E:\acrobat2\Project_11_07_03\Capture day 1\Session 1\Acrobat.ASF
:FULLY-SPECIFIED
:DEGREES
257
root 8.971 17.7927 24.9948 216.049 -66.5512 161.787
lowerback 22.2297 -3.7976 4.67538
upperback 9.90761 -4.97761 4.15854
thorax -1.47925 -2.88192 2.96224
lowerneck -4.74001 -2.53406 4.79946
upperneck 3.52864 -3.48969 -5.7485
head 1.75701 -1.82888 -2.79535
rclavicle -2.22639e-014 7.95139e-015
rhumerus -24.5714 -0.137309 -74.3008
rradius 50.2517
rwrist -15.9587
rhand -19.2988 -33.4843
rfingers 7.12502
rthumb 7.01674 -63.348
lclavicle -2.22639e-014 7.95139e-015
lhumerus -1.74547 -37.6183 95.9411
lradius 54.9467
lwrist 11.4247
lhand -19.6741 -37.2598
lfingers 7.12502
lthumb 6.65439 -7.38437
rfemur -51.3142 -5.39049 2.91274
rtibia 59.7885
rfoot 0.379591 -11.3804
rtoes 8.38353
lfemur 146.666 176.603 170.503
ltibia 38.6317
lfoot 10.8483 -4.23572
ltoes 52.4564
258
root 8.81685 18.158 25.0034 213.559 -66.6056 162.546
lowerback 21.6768 -3.4976 3.42922
upperback 9.57104 -4.79515 4.23313
thorax -1.49265 -2.81194 3.66901
lowerneck -2.85898 -2.86664 4.8366
upperneck 3.03511 -3.87183 -7.20501
head 1.21485 -2.03376 -3.24263
rclavicle 4.53229e-014 -1.51076e-014
rhumerus -26.2729 -0.654089 -74.5149
rradius 47.7591
rwrist -16.4093
rhand -20.0735 -33.2462
rfingers 7.12502
rthumb 6.26888 -63.1335
lclavicle 4.53229e-014 -1.51076e-014
lhumerus -6.75327 -35.258 97.5189
lradius 54.1605
lwrist 9.43119
lhand -18.8825 -37.4112
lfingers 7.12502
lthumb 7.41858 -7.56127
rfemur -47.4557 -3.53514 2.87322
rtibia 56.1866
rfoot 1.37401 -10.2076
rtoes 8.86645
lfemur 149.903 176.04 170.736
ltibia 36.2489
lfoot 13.2827 -0.989567
ltoes 51.3881
259
root 8.6655 18.451 25.1642 211.556 -66.6721 164.202
lowerback 19.8943 -3.58733 4.03337
upperback 8.67608 -4.71659 3.98073
thorax -1.64574 -2.68689 2.94497
lowerneck -0.171302 -3.04698 5.4918
upperneck 2.67816 -4.05513 -8.72251
head 0.568901 -2.09972 -3.82089
rclavicle -6.20208e-014 3.57812e-014
rhumerus -28.266 -0.88856 -74.8383
rradius 45.3105
rwrist -17.5933
rhand -21.2234 -32.4541
rfingers 7.12502
rthumb 5.15861 -62.3713
lclavicle -6.20208e-014 3.57812e-014
lhumerus -11.4489 -35.8279 97.814
lradius 51.8334
lwrist 10.2074
lhand -19.5296 -38.8504
lfingers 7.12502
lthumb 6.7939 -8.97941
rfemur -45.8688 -3.35213 3.03908
rtibia 53.1358
rfoot 1.26406 -7.97348
rtoes 9.97499
lfemur 150.809 176.111 170.684
ltibia 35.0013
lfoot 14.0256 0.344683
ltoes 48.8975
260
root 8.51515 18.7082 25.2729 209.194 -67.1165 165.755
lowerback 18.3216 -3.25382 4.49799
upperback 8.46598 -4.2583 4.22343
thorax -1.08965 -2.43435 2.73972
lowerneck -0.283277 -3.32923 4.19904
upperneck 3.00462 -4.42951 -8.55624
head 0.695894 -2.31301 -3.52043
rclavicle 4.77083e-015 -5.1684e-014
rhumerus -27.267 -1.49545 -74.2962
rradius 40.4513
rwrist -19.0992
rhand -21.8975 -31.0935
rfingers 7.12502
rthumb 4.5077 -61.0256
lclavicle 4.77083e-015 -5.1684e-014
lhumerus -17.2351 -32.0832 98.8971
lradius 54.2504
lwrist 6.67849
lhand -16.6376 -37.2679
lfingers 7.12502
lthumb 9.585 -7.50594
rfemur -43.4084 -2.96945 3.58399
rtibia 49.8649
rfoot 0.0189839 -7.13152
rtoes 10.7662
lfemur 152.428 176.04 170.922
ltibia 33.5408
lfoot 13.6127 -0.109465
ltoes 44.7942
261
root 8.35988 18.9367 25.3577 207.367 -67.9491 166.227
lowerback 17.3422 -3.08543 4.58127
upperback 8.13565 -4.02632 4.42428
thorax -0.934369 -2.30186 2.80684
lowerneck -0.450423 -3.24901 1.38856
upperneck 4.51935 -4.25432 -6.23217
head 1.31948 -2.25422 -2.25657
rclavicle -6.36111e-015 -2.06736e-014
rhumerus -29.2756 -4.26013 -73.4636
rradius 39.1644
rwrist -17.9411
rhand -21.2023 -30.643
rfingers 7.12502
rthumb 5.17905 -60.5597
lclavicle -6.36111e-015 -2.06736e-014
lhumerus -19.363 -30.125 98.5601
lradius 52.3589
lwrist 5.25219
lhand -13.2646 -37.2156
lfingers 7.12502
lthumb 12.8381 -7.63037
rfemur -39.8203 -2.71401 3.86894
rtibia 46.125
rfoot -1.69846 -6.72021
rtoes 10.1128
lfemur 154.741 176.218 170.866
ltibia 31.7111
lfoot 11.5772 -1.19522
ltoes 40.8592
262
root 8.19775 19.1292 25.4383 205.709 -69.1257 166.295
lowerback 16.5827 -3.17961 4.78577
upperback 7.75297 -4.09697 4.45632
thorax -0.959843 -2.31125 2.70202
lowerneck -0.148273 -2.95473 -0.0211382
upperneck 5.97445 -3.8447 -4.77757
head 1.79545 -2.07122 -1.56091
rclavicle -1.03368e-014 -2.38542e-014
rhumerus -31.7001 -7.36002 -72.6516
rradius 38.3781
rwrist -16.0382
rhand -20.4848 -30.7822
rfingers 7.12502
rthumb 5.87181 -60.6808
lclavicle -1.03368e-014 -2.38542e-014
lhumerus -19.6794 -30.1371 97.947
lradius 49.2788
lwrist 7.22773
lhand -13.4985 -35.0318
lfingers 7.12502
lthumb 12.6126 -5.43253
rfemur -35.5068 -2.58772 4.10203
rtibia 41.6808
rfoot -3.0497 -5.78751
rtoes 7.39648
lfemur 157.466 176.571 170.709
ltibia 29.5151
lfoot 8.63979 -1.64507
ltoes 39.2805
